<svg width="838" height="248" viewBox="0 0 838 248" fill="none" xmlns="http://www.w3.org/2000/svg">
<path d="M2.928 44V20H10.224L10.464 24.656C11.232 22.96 12.304 21.68 13.68 20.816C15.088 19.952 16.704 19.52 18.528 19.52C20.32 19.52 21.872 19.92 23.184 20.72C24.496 21.52 25.472 22.704 26.112 24.272C26.624 23.216 27.28 22.336 28.08 21.632C28.912 20.928 29.856 20.4 30.912 20.048C31.968 19.696 33.056 19.52 34.176 19.52C35.776 19.52 37.184 19.84 38.4 20.48C39.616 21.088 40.576 22.032 41.28 23.312C42.016 24.56 42.384 26.128 42.384 28.016V44H34.224V29.888C34.224 28.352 33.92 27.28 33.312 26.672C32.736 26.064 31.952 25.76 30.96 25.76C30.16 25.76 29.424 25.968 28.752 26.384C28.112 26.768 27.616 27.36 27.264 28.16C26.912 28.96 26.736 29.968 26.736 31.184V44H18.576V29.888C18.576 28.352 18.272 27.28 17.664 26.672C17.056 26.064 16.272 25.76 15.312 25.76C14.576 25.76 13.872 25.952 13.2 26.336C12.56 26.72 12.048 27.328 11.664 28.16C11.28 28.96 11.088 30.016 11.088 31.328V44H2.928ZM58.1955 44.48C55.7955 44.48 53.5555 44.096 51.4755 43.328C49.4275 42.528 47.7315 41.392 46.3875 39.92L50.2275 35.408C51.0275 36.432 52.0835 37.296 53.3955 38C54.7395 38.672 56.2275 39.008 57.8595 39.008C58.8515 39.008 59.6675 38.864 60.3075 38.576C60.9475 38.288 61.2675 37.84 61.2675 37.232C61.2675 36.784 61.1075 36.432 60.7875 36.176C60.4675 35.888 59.8275 35.648 58.8675 35.456L55.5075 34.784C52.4995 34.176 50.3555 33.28 49.0755 32.096C47.8275 30.88 47.2035 29.296 47.2035 27.344C47.2035 26.032 47.6035 24.784 48.4035 23.6C49.2035 22.384 50.4355 21.408 52.0995 20.672C53.7635 19.904 55.8915 19.52 58.4835 19.52C60.9155 19.52 63.0595 19.872 64.9155 20.576C66.7715 21.28 68.2435 22.304 69.3315 23.648L65.4435 28.064C64.6755 27.104 63.6835 26.352 62.4675 25.808C61.2515 25.264 60.0355 24.992 58.8195 24.992C58.0515 24.992 57.3955 25.072 56.8515 25.232C56.3395 25.36 55.9555 25.552 55.6995 25.808C55.4435 26.064 55.3155 26.384 55.3155 26.768C55.3155 27.184 55.5075 27.552 55.8915 27.872C56.3075 28.16 57.0595 28.416 58.1475 28.64L62.5155 29.504C64.9795 29.952 66.7555 30.768 67.8435 31.952C68.9315 33.136 69.4755 34.56 69.4755 36.224C69.4755 37.792 69.0595 39.2 68.2275 40.448C67.3955 41.696 66.1475 42.688 64.4835 43.424C62.8195 44.128 60.7235 44.48 58.1955 44.48ZM77.7893 17.216C76.1253 17.216 74.9093 16.912 74.1413 16.304C73.4053 15.664 73.0373 14.672 73.0373 13.328C73.0373 11.952 73.4053 10.96 74.1413 10.352C74.9093 9.712 76.1253 9.392 77.7893 9.392C79.4213 9.392 80.6213 9.712 81.3893 10.352C82.1573 10.96 82.5413 11.952 82.5413 13.328C82.5413 14.672 82.1573 15.664 81.3893 16.304C80.6213 16.912 79.4213 17.216 77.7893 17.216ZM81.8693 20V44H73.7093V20H81.8693ZM112.884 19.52C114.548 19.52 116.004 19.776 117.252 20.288C118.532 20.8 119.636 21.536 120.564 22.496C121.492 23.456 122.244 24.592 122.82 25.904L119.172 27.632C118.66 26.096 117.876 24.928 116.82 24.128C115.796 23.296 114.452 22.88 112.788 22.88C111.188 22.88 109.812 23.248 108.66 23.984C107.508 24.688 106.628 25.728 106.02 27.104C105.412 28.448 105.108 30.08 105.108 32C105.108 33.888 105.412 35.52 106.02 36.896C106.628 38.272 107.508 39.328 108.66 40.064C109.812 40.768 111.188 41.12 112.788 41.12C114.036 41.12 115.108 40.928 116.004 40.544C116.932 40.16 117.684 39.6 118.26 38.864C118.868 38.128 119.284 37.232 119.508 36.176L123.06 37.424C122.516 38.896 121.764 40.16 120.804 41.216C119.876 42.272 118.74 43.088 117.396 43.664C116.084 44.208 114.58 44.48 112.884 44.48C110.644 44.48 108.644 43.984 106.884 42.992C105.124 42 103.748 40.576 102.756 38.72C101.764 36.832 101.268 34.592 101.268 32C101.268 29.408 101.764 27.184 102.756 25.328C103.748 23.44 105.124 22 106.884 21.008C108.644 20.016 110.644 19.52 112.884 19.52ZM139.744 19.52C142.016 19.52 144.016 20.016 145.744 21.008C147.504 22 148.88 23.44 149.872 25.328C150.864 27.184 151.36 29.408 151.36 32C151.36 34.592 150.864 36.832 149.872 38.72C148.88 40.576 147.504 42 145.744 42.992C144.016 43.984 142.016 44.48 139.744 44.48C137.504 44.48 135.504 43.984 133.744 42.992C131.984 42 130.608 40.576 129.616 38.72C128.624 36.832 128.128 34.592 128.128 32C128.128 29.408 128.624 27.184 129.616 25.328C130.608 23.44 131.984 22 133.744 21.008C135.504 20.016 137.504 19.52 139.744 19.52ZM139.744 22.832C138.112 22.832 136.72 23.2 135.568 23.936C134.416 24.672 133.52 25.728 132.88 27.104C132.272 28.448 131.968 30.08 131.968 32C131.968 33.888 132.272 35.52 132.88 36.896C133.52 38.272 134.416 39.328 135.568 40.064C136.72 40.8 138.112 41.168 139.744 41.168C141.376 41.168 142.768 40.8 143.92 40.064C145.072 39.328 145.952 38.272 146.56 36.896C147.2 35.52 147.52 33.888 147.52 32C147.52 30.08 147.2 28.448 146.56 27.104C145.952 25.728 145.072 24.672 143.92 23.936C142.768 23.2 141.376 22.832 139.744 22.832ZM158.589 44V20H161.949L162.189 23.744C163.053 22.272 164.173 21.2 165.549 20.528C166.957 19.856 168.397 19.52 169.869 19.52C171.565 19.52 173.165 19.904 174.669 20.672C176.173 21.44 177.325 22.624 178.125 24.224C178.637 23.136 179.357 22.256 180.285 21.584C181.213 20.88 182.221 20.368 183.309 20.048C184.429 19.696 185.485 19.52 186.477 19.52C188.013 19.52 189.469 19.84 190.845 20.48C192.253 21.12 193.405 22.112 194.301 23.456C195.197 24.8 195.645 26.528 195.645 28.64V44H191.805V29.024C191.805 26.848 191.261 25.28 190.173 24.32C189.085 23.36 187.741 22.88 186.141 22.88C184.893 22.88 183.725 23.184 182.637 23.792C181.549 24.4 180.669 25.296 179.997 26.48C179.357 27.664 179.037 29.12 179.037 30.848V44H175.197V29.024C175.197 26.848 174.653 25.28 173.565 24.32C172.477 23.36 171.133 22.88 169.533 22.88C168.477 22.88 167.389 23.168 166.269 23.744C165.181 24.288 164.269 25.168 163.533 26.384C162.797 27.6 162.429 29.2 162.429 31.184V44H158.589ZM204.339 54.08V20H207.699L208.035 25.856L207.507 25.184C207.923 24.064 208.547 23.088 209.379 22.256C210.211 21.392 211.219 20.72 212.403 20.24C213.587 19.76 214.867 19.52 216.243 19.52C218.195 19.52 219.987 20.016 221.619 21.008C223.283 22 224.611 23.424 225.603 25.28C226.595 27.136 227.091 29.376 227.091 32C227.091 34.592 226.579 36.832 225.555 38.72C224.563 40.576 223.235 42 221.571 42.992C219.907 43.984 218.083 44.48 216.099 44.48C214.115 44.48 212.371 44 210.867 43.04C209.395 42.048 208.339 40.8 207.699 39.296L208.179 38.576V54.08H204.339ZM215.715 41.12C218.083 41.12 219.923 40.288 221.235 38.624C222.579 36.96 223.251 34.752 223.251 32C223.251 29.248 222.595 27.04 221.283 25.376C220.003 23.712 218.195 22.88 215.859 22.88C214.323 22.88 212.979 23.264 211.827 24.032C210.675 24.768 209.779 25.824 209.139 27.2C208.499 28.544 208.179 30.144 208.179 32C208.179 33.824 208.483 35.424 209.091 36.8C209.731 38.176 210.611 39.248 211.731 40.016C212.883 40.752 214.211 41.12 215.715 41.12ZM243.121 44.48C241.585 44.48 240.129 44.192 238.753 43.616C237.409 43.04 236.305 42.112 235.441 40.832C234.609 39.52 234.193 37.824 234.193 35.744V20H238.033V34.736C238.033 37.168 238.561 38.848 239.617 39.776C240.673 40.672 242.161 41.12 244.081 41.12C244.977 41.12 245.857 40.976 246.721 40.688C247.585 40.368 248.353 39.888 249.025 39.248C249.729 38.576 250.273 37.728 250.657 36.704C251.073 35.68 251.281 34.464 251.281 33.056V20H255.121V44H251.761L251.521 40.352C250.689 41.792 249.553 42.848 248.113 43.52C246.705 44.16 245.041 44.48 243.121 44.48ZM269.722 13.184V37.376C269.722 38.56 270.058 39.44 270.73 40.016C271.402 40.592 272.266 40.88 273.322 40.88C274.25 40.88 275.05 40.72 275.722 40.4C276.394 40.08 277.002 39.648 277.546 39.104L278.89 42.32C278.154 42.992 277.274 43.52 276.25 43.904C275.258 44.288 274.106 44.48 272.794 44.48C271.578 44.48 270.442 44.272 269.386 43.856C268.33 43.408 267.482 42.72 266.842 41.792C266.234 40.832 265.914 39.584 265.882 38.048V14.24L269.722 13.184ZM278.458 20V23.312H261.082V20H278.458ZM294.199 44.48C291.927 44.48 289.895 43.984 288.103 42.992C286.343 42 284.967 40.576 283.975 38.72C282.983 36.832 282.487 34.592 282.487 32C282.487 29.408 282.983 27.184 283.975 25.328C284.967 23.44 286.327 22 288.055 21.008C289.783 20.016 291.751 19.52 293.959 19.52C296.199 19.52 298.103 20 299.671 20.96C301.271 21.92 302.487 23.232 303.319 24.896C304.151 26.528 304.567 28.368 304.567 30.416C304.567 30.96 304.551 31.456 304.519 31.904C304.487 32.352 304.439 32.752 304.375 33.104H284.983V29.696H302.695L300.727 30.08C300.727 27.776 300.087 26 298.807 24.752C297.559 23.504 295.911 22.88 293.863 22.88C292.295 22.88 290.935 23.248 289.783 23.984C288.663 24.688 287.783 25.728 287.143 27.104C286.535 28.448 286.231 30.08 286.231 32C286.231 33.888 286.551 35.52 287.191 36.896C287.831 38.272 288.727 39.328 289.879 40.064C291.063 40.768 292.471 41.12 294.103 41.12C295.863 41.12 297.287 40.784 298.375 40.112C299.495 39.44 300.391 38.528 301.063 37.376L304.087 39.152C303.479 40.24 302.695 41.184 301.735 41.984C300.807 42.784 299.703 43.408 298.423 43.856C297.175 44.272 295.767 44.48 294.199 44.48ZM311.87 44V20H314.99L315.518 23.936C316.19 22.464 317.166 21.36 318.446 20.624C319.758 19.888 321.342 19.52 323.198 19.52C323.614 19.52 324.062 19.552 324.542 19.616C325.054 19.68 325.486 19.808 325.838 20L325.166 23.504C324.814 23.376 324.43 23.28 324.014 23.216C323.598 23.152 323.006 23.12 322.238 23.12C321.246 23.12 320.238 23.408 319.214 23.984C318.222 24.56 317.39 25.44 316.718 26.624C316.046 27.776 315.71 29.248 315.71 31.04V44H311.87ZM356.634 19.52C358.298 19.52 359.754 19.776 361.002 20.288C362.282 20.8 363.386 21.536 364.314 22.496C365.242 23.456 365.994 24.592 366.57 25.904L362.922 27.632C362.41 26.096 361.626 24.928 360.57 24.128C359.546 23.296 358.202 22.88 356.538 22.88C354.938 22.88 353.562 23.248 352.41 23.984C351.258 24.688 350.378 25.728 349.77 27.104C349.162 28.448 348.858 30.08 348.858 32C348.858 33.888 349.162 35.52 349.77 36.896C350.378 38.272 351.258 39.328 352.41 40.064C353.562 40.768 354.938 41.12 356.538 41.12C357.786 41.12 358.858 40.928 359.754 40.544C360.682 40.16 361.434 39.6 362.01 38.864C362.618 38.128 363.034 37.232 363.258 36.176L366.81 37.424C366.266 38.896 365.514 40.16 364.554 41.216C363.626 42.272 362.49 43.088 361.146 43.664C359.834 44.208 358.33 44.48 356.634 44.48C354.394 44.48 352.394 43.984 350.634 42.992C348.874 42 347.498 40.576 346.506 38.72C345.514 36.832 345.018 34.592 345.018 32C345.018 29.408 345.514 27.184 346.506 25.328C347.498 23.44 348.874 22 350.634 21.008C352.394 20.016 354.394 19.52 356.634 19.52ZM387.574 28.496C387.574 26.704 387.094 25.328 386.134 24.368C385.174 23.376 383.814 22.88 382.054 22.88C380.39 22.88 378.982 23.248 377.83 23.984C376.678 24.688 375.83 25.84 375.286 27.44L372.166 25.52C372.806 23.728 373.99 22.288 375.718 21.2C377.446 20.08 379.59 19.52 382.15 19.52C383.878 19.52 385.446 19.824 386.854 20.432C388.262 21.008 389.366 21.904 390.166 23.12C390.998 24.304 391.414 25.84 391.414 27.728V39.344C391.414 40.496 392.022 41.072 393.238 41.072C393.846 41.072 394.438 40.992 395.014 40.832L394.822 43.856C394.182 44.176 393.35 44.336 392.326 44.336C391.398 44.336 390.566 44.16 389.83 43.808C389.094 43.456 388.518 42.928 388.102 42.224C387.686 41.488 387.478 40.576 387.478 39.488V39.008L388.438 39.152C388.054 40.4 387.398 41.424 386.47 42.224C385.542 42.992 384.502 43.568 383.35 43.952C382.198 44.304 381.062 44.48 379.942 44.48C378.534 44.48 377.222 44.24 376.006 43.76C374.79 43.28 373.814 42.56 373.078 41.6C372.374 40.608 372.022 39.392 372.022 37.952C372.022 36.16 372.614 34.688 373.798 33.536C375.014 32.352 376.694 31.552 378.838 31.136L388.342 29.264V32.432L380.614 34.016C379.046 34.336 377.878 34.784 377.11 35.36C376.342 35.936 375.958 36.736 375.958 37.76C375.958 38.752 376.342 39.568 377.11 40.208C377.91 40.816 379.03 41.12 380.47 41.12C381.398 41.12 382.278 41.008 383.11 40.784C383.974 40.528 384.742 40.16 385.414 39.68C386.086 39.168 386.614 38.544 386.998 37.808C387.382 37.04 387.574 36.144 387.574 35.12V28.496ZM400.745 44V20H404.105L404.345 23.744C405.209 22.272 406.329 21.2 407.705 20.528C409.113 19.856 410.553 19.52 412.025 19.52C413.721 19.52 415.321 19.904 416.825 20.672C418.329 21.44 419.481 22.624 420.281 24.224C420.793 23.136 421.513 22.256 422.441 21.584C423.369 20.88 424.377 20.368 425.465 20.048C426.585 19.696 427.641 19.52 428.633 19.52C430.169 19.52 431.625 19.84 433.001 20.48C434.409 21.12 435.561 22.112 436.457 23.456C437.353 24.8 437.801 26.528 437.801 28.64V44H433.961V29.024C433.961 26.848 433.417 25.28 432.329 24.32C431.241 23.36 429.897 22.88 428.297 22.88C427.049 22.88 425.881 23.184 424.793 23.792C423.705 24.4 422.825 25.296 422.153 26.48C421.513 27.664 421.193 29.12 421.193 30.848V44H417.353V29.024C417.353 26.848 416.809 25.28 415.721 24.32C414.633 23.36 413.289 22.88 411.689 22.88C410.633 22.88 409.545 23.168 408.425 23.744C407.337 24.288 406.425 25.168 405.689 26.384C404.953 27.6 404.585 29.2 404.585 31.184V44H400.745ZM446.495 54.08V20H449.855L450.191 25.856L449.663 25.184C450.079 24.064 450.703 23.088 451.535 22.256C452.367 21.392 453.375 20.72 454.559 20.24C455.743 19.76 457.023 19.52 458.399 19.52C460.351 19.52 462.143 20.016 463.775 21.008C465.439 22 466.767 23.424 467.759 25.28C468.751 27.136 469.247 29.376 469.247 32C469.247 34.592 468.735 36.832 467.711 38.72C466.719 40.576 465.391 42 463.727 42.992C462.063 43.984 460.239 44.48 458.255 44.48C456.271 44.48 454.527 44 453.023 43.04C451.551 42.048 450.495 40.8 449.855 39.296L450.335 38.576V54.08H446.495ZM457.871 41.12C460.239 41.12 462.079 40.288 463.391 38.624C464.735 36.96 465.407 34.752 465.407 32C465.407 29.248 464.751 27.04 463.439 25.376C462.159 23.712 460.351 22.88 458.015 22.88C456.479 22.88 455.135 23.264 453.983 24.032C452.831 24.768 451.935 25.824 451.295 27.2C450.655 28.544 450.335 30.144 450.335 32C450.335 33.824 450.639 35.424 451.247 36.8C451.887 38.176 452.767 39.248 453.887 40.016C455.039 40.752 456.367 41.12 457.871 41.12ZM485.229 44.48C482.893 44.48 480.733 43.984 478.749 42.992C476.797 42 475.293 40.592 474.237 38.768L477.501 36.416C478.205 37.888 479.229 39.04 480.573 39.872C481.949 40.704 483.597 41.12 485.517 41.12C487.213 41.12 488.541 40.8 489.501 40.16C490.461 39.488 490.941 38.624 490.941 37.568C490.941 36.896 490.717 36.288 490.269 35.744C489.853 35.168 489.037 34.752 487.821 34.496L482.061 33.296C479.725 32.816 478.045 32.016 477.021 30.896C476.029 29.776 475.533 28.384 475.533 26.72C475.533 25.408 475.901 24.208 476.637 23.12C477.405 22.032 478.477 21.168 479.853 20.528C481.261 19.856 482.909 19.52 484.797 19.52C487.165 19.52 489.165 19.984 490.797 20.912C492.429 21.84 493.645 23.152 494.445 24.848L491.229 26.96C490.685 25.552 489.805 24.528 488.589 23.888C487.373 23.216 486.109 22.88 484.797 22.88C483.645 22.88 482.653 23.04 481.821 23.36C481.021 23.68 480.397 24.128 479.949 24.704C479.533 25.248 479.325 25.872 479.325 26.576C479.325 27.28 479.565 27.936 480.045 28.544C480.525 29.12 481.421 29.536 482.733 29.792L488.733 31.04C490.973 31.488 492.541 32.224 493.437 33.248C494.333 34.272 494.781 35.52 494.781 36.992C494.781 38.496 494.381 39.824 493.581 40.976C492.781 42.096 491.661 42.96 490.221 43.568C488.781 44.176 487.117 44.48 485.229 44.48Z" fill="white"/>
<path d="M14 224.715V110.449H48.2094L49.8059 135.13C52.6947 126.598 56.9518 119.971 62.5774 115.248C68.355 110.525 75.653 108.163 84.4714 108.163C87.3602 108.163 89.7929 108.392 91.7694 108.849C93.898 109.306 95.5705 109.916 96.7868 110.677L92.9097 142.672C91.3893 142.062 89.4128 141.605 86.9801 141.301C84.6995 140.843 81.8867 140.615 78.5418 140.615C73.9805 140.615 69.7233 141.605 65.7703 143.586C61.8172 145.566 58.6243 148.537 56.1916 152.499C53.911 156.307 52.7707 161.183 52.7707 167.125V224.715H14Z" fill="#FF4E62"/>
<path d="M166.307 227C153.687 227 142.74 224.639 133.466 219.916C124.343 215.193 117.273 208.413 112.256 199.576C107.238 190.74 104.73 180.075 104.73 167.582C104.73 155.089 107.238 144.424 112.256 135.587C117.273 126.751 124.267 119.971 133.238 115.248C142.36 110.525 152.775 108.163 164.482 108.163C176.494 108.163 186.68 110.525 195.043 115.248C203.557 119.819 210.019 126.217 214.428 134.445C218.837 142.519 221.042 151.813 221.042 162.325C221.042 165.068 220.966 167.81 220.814 170.553C220.662 173.295 220.434 175.58 220.13 177.409H129.817V156.612H203.025L184.552 163.697C184.552 154.555 182.879 147.547 179.534 142.672C176.342 137.796 171.324 135.359 164.482 135.359C159.617 135.359 155.436 136.501 151.939 138.787C148.594 141.072 146.009 144.652 144.185 149.528C142.512 154.403 141.676 160.65 141.676 168.267C141.676 175.733 142.664 181.827 144.641 186.55C146.617 191.121 149.43 194.472 153.079 196.605C156.728 198.586 161.137 199.576 166.307 199.576C172.084 199.576 176.646 198.434 179.991 196.148C183.487 193.863 186.072 190.663 187.745 186.55L218.761 196.834C216.633 203.385 212.908 208.946 207.586 213.517C202.417 217.935 196.183 221.287 188.885 223.572C181.739 225.857 174.213 227 166.307 227Z" fill="#FF4E62"/>
<path d="M315.939 227C308.489 227 301.875 225.324 296.098 221.972C290.472 218.62 285.835 214.05 282.186 208.26C278.537 202.319 276.18 195.615 275.116 188.15L278.765 183.35L276.712 224.715H242.731V62H281.502V146.328L277.853 140.843C279.981 131.398 284.314 123.627 290.852 117.533C297.39 111.287 306.208 108.163 317.307 108.163C326.126 108.163 333.956 110.525 340.798 115.248C347.792 119.971 353.189 126.827 356.99 135.816C360.943 144.652 362.92 155.393 362.92 168.039C362.92 180.38 360.943 190.968 356.99 199.805C353.037 208.641 347.564 215.421 340.57 220.144C333.576 224.715 325.366 227 315.939 227ZM302.483 198.434C309.173 198.434 314.419 195.996 318.22 191.121C322.021 186.093 323.921 178.247 323.921 167.582C323.921 156.917 322.021 149.147 318.22 144.271C314.419 139.244 309.173 136.73 302.483 136.73C298.074 136.73 294.273 138.025 291.08 140.615C288.039 143.053 285.683 146.557 284.01 151.127C282.338 155.698 281.502 161.259 281.502 167.81C281.502 174.361 282.338 179.922 284.01 184.493C285.683 189.064 288.115 192.568 291.308 195.006C294.501 197.291 298.226 198.434 302.483 198.434Z" fill="#FF4E62"/>
<path d="M575.95 108.163C587.962 108.163 598.452 110.525 607.423 115.248C616.545 119.819 623.615 126.598 628.633 135.587C633.802 144.424 636.387 155.089 636.387 167.582C636.387 180.075 633.802 190.816 628.633 199.805C623.615 208.641 616.545 215.421 607.423 220.144C598.452 224.715 587.962 227 575.95 227C564.243 227 553.828 224.715 544.706 220.144C535.583 215.421 528.437 208.641 523.268 199.805C518.25 190.816 515.742 180.075 515.742 167.582C515.742 155.089 518.25 144.424 523.268 135.587C528.437 126.598 535.583 119.819 544.706 115.248C553.828 110.525 564.243 108.163 575.95 108.163ZM575.95 135.816C571.541 135.816 567.74 136.882 564.547 139.015C561.354 141.148 558.922 144.576 557.249 149.299C555.577 154.022 554.74 160.116 554.74 167.582C554.74 175.047 555.577 181.141 557.249 185.864C558.922 190.435 561.354 193.863 564.547 196.148C567.74 198.281 571.541 199.348 575.95 199.348C580.512 199.348 584.389 198.281 587.581 196.148C590.774 193.863 593.207 190.435 594.879 185.864C596.552 181.141 597.388 175.047 597.388 167.582C597.388 160.116 596.552 154.022 594.879 149.299C593.207 144.576 590.774 141.148 587.581 139.015C584.389 136.882 580.512 135.816 575.95 135.816Z" fill="#FF4E62"/>
<path d="M705.194 74.1122V184.036C705.194 189.521 706.487 193.482 709.071 195.92C711.808 198.205 715.533 199.348 720.246 199.348C723.895 199.348 727.012 198.967 729.597 198.205C732.334 197.291 734.766 195.996 736.895 194.32L741 218.316C737.199 221.058 732.41 223.191 726.632 224.715C720.854 226.238 714.925 227 708.843 227C700.177 227 692.651 225.781 686.265 223.344C680.031 220.906 675.166 217.021 671.669 211.688C668.324 206.356 666.576 199.271 666.423 190.435V84.8532L705.194 74.1122ZM739.176 110.449V138.101H646.81V110.449H739.176Z" fill="#FF4E62"/>
<path d="M451.314 164.241C451.314 168.701 447.731 172.304 443.296 172.304C438.861 172.304 435.278 168.701 435.278 164.241V107.799C435.278 103.347 438.861 99.7363 443.296 99.7363C447.731 99.7363 451.314 103.347 451.314 107.799V164.241ZM399.198 164.241C399.198 188.733 418.942 208.588 443.296 208.588C467.65 208.588 487.394 188.733 487.394 164.241C487.394 150.534 481.205 138.263 471.484 130.124C468.076 127.277 467.6 122.195 470.431 118.77C473.263 115.346 478.324 114.88 481.732 117.727C494.961 128.814 503.43 145.545 503.43 164.015C503.43 197.628 476.495 224.715 443.296 224.715C410.097 224.715 383.162 197.628 383.162 164.015C383.162 145.545 391.619 128.814 404.861 117.727C408.268 114.88 413.329 115.346 416.161 118.77C418.767 122.195 418.516 127.277 415.108 130.124C405.387 138.263 399.198 150.534 399.198 164.241Z" fill="#FF4E62"/>
<path d="M19 230.729V117.155H53.2094L54.8059 141.687C57.6947 133.207 61.9518 126.62 67.5774 121.925C73.355 117.231 80.653 114.884 89.4714 114.884C92.3602 114.884 94.7929 115.111 96.7694 115.565C98.898 116.019 100.57 116.625 101.787 117.382L97.9097 149.183C96.3893 148.577 94.4128 148.123 91.9801 147.82C89.6995 147.366 86.8867 147.139 83.5418 147.139C78.9805 147.139 74.7233 148.123 70.7703 150.091C66.8172 152.06 63.6243 155.013 61.1916 158.95C58.911 162.736 57.7707 167.582 57.7707 173.488V230.729H19Z" fill="#2ECFCA"/>
<path d="M171.307 233C158.687 233 147.74 230.653 138.466 225.958C129.343 221.264 122.273 214.525 117.256 205.742C112.238 196.959 109.73 186.359 109.73 173.942C109.73 161.524 112.238 150.924 117.256 142.141C122.273 133.358 129.267 126.62 138.238 121.925C147.36 117.231 157.775 114.884 169.482 114.884C181.494 114.884 191.68 117.231 200.043 121.925C208.557 126.468 215.019 132.828 219.428 141.006C223.837 149.031 226.042 158.269 226.042 168.717C226.042 171.443 225.966 174.169 225.814 176.895C225.662 179.621 225.434 181.892 225.13 183.709H134.817V163.039H208.025L189.552 170.08C189.552 160.994 187.879 154.029 184.534 149.183C181.342 144.337 176.324 141.914 169.482 141.914C164.617 141.914 160.436 143.05 156.939 145.321C153.594 147.593 151.009 151.151 149.185 155.997C147.512 160.843 146.676 167.052 146.676 174.623C146.676 182.043 147.664 188.101 149.641 192.795C151.617 197.338 154.43 200.669 158.079 202.789C161.728 204.758 166.137 205.742 171.307 205.742C177.084 205.742 181.646 204.607 184.991 202.335C188.487 200.064 191.072 196.884 192.745 192.795L223.761 203.017C221.633 209.528 217.908 215.055 212.586 219.598C207.417 223.99 201.183 227.321 193.885 229.593C186.739 231.864 179.213 233 171.307 233Z" fill="#2ECFCA"/>
<path d="M320.939 233C313.489 233 306.875 231.334 301.098 228.003C295.472 224.671 290.835 220.128 287.186 214.374C283.537 208.468 281.18 201.805 280.116 194.385L283.765 189.615L281.712 230.729H247.731V69H286.502V152.817L282.853 147.366C284.981 137.977 289.314 130.254 295.852 124.197C302.39 117.988 311.208 114.884 322.307 114.884C331.126 114.884 338.956 117.231 345.798 121.925C352.792 126.62 358.189 133.434 361.99 142.368C365.943 151.151 367.92 161.827 367.92 174.396C367.92 186.662 365.943 197.187 361.99 205.97C358.037 214.753 352.564 221.491 345.57 226.186C338.576 230.729 330.366 233 320.939 233ZM307.483 204.607C314.173 204.607 319.419 202.184 323.22 197.338C327.021 192.341 328.921 184.542 328.921 173.942C328.921 163.342 327.021 155.619 323.22 150.773C319.419 145.776 314.173 143.277 307.483 143.277C303.074 143.277 299.273 144.564 296.08 147.139C293.039 149.561 290.683 153.044 289.01 157.587C287.338 162.13 286.502 167.657 286.502 174.169C286.502 180.681 287.338 186.208 289.01 190.751C290.683 195.294 293.115 198.777 296.308 201.199C299.501 203.471 303.226 204.607 307.483 204.607Z" fill="#2ECFCA"/>
<path d="M580.95 114.884C592.962 114.884 603.452 117.231 612.423 121.925C621.545 126.468 628.615 133.207 633.633 142.141C638.802 150.924 641.387 161.524 641.387 173.942C641.387 186.359 638.802 197.035 633.633 205.97C628.615 214.753 621.545 221.491 612.423 226.186C603.452 230.729 592.962 233 580.95 233C569.243 233 558.828 230.729 549.706 226.186C540.583 221.491 533.437 214.753 528.268 205.97C523.25 197.035 520.742 186.359 520.742 173.942C520.742 161.524 523.25 150.924 528.268 142.141C533.437 133.207 540.583 126.468 549.706 121.925C558.828 117.231 569.243 114.884 580.95 114.884ZM580.95 142.368C576.541 142.368 572.74 143.428 569.547 145.548C566.354 147.669 563.922 151.076 562.249 155.77C560.577 160.464 559.74 166.522 559.74 173.942C559.74 181.362 560.577 187.419 562.249 192.114C563.922 196.657 566.354 200.064 569.547 202.335C572.74 204.455 576.541 205.515 580.95 205.515C585.512 205.515 589.389 204.455 592.581 202.335C595.774 200.064 598.207 196.657 599.879 192.114C601.552 187.419 602.388 181.362 602.388 173.942C602.388 166.522 601.552 160.464 599.879 155.77C598.207 151.076 595.774 147.669 592.581 145.548C589.389 143.428 585.512 142.368 580.95 142.368Z" fill="#2ECFCA"/>
<path d="M710.194 81.0388V190.296C710.194 195.748 711.487 199.685 714.071 202.108C716.808 204.38 720.533 205.515 725.246 205.515C728.895 205.515 732.012 205.137 734.597 204.38C737.334 203.471 739.766 202.184 741.895 200.518L746 224.368C742.199 227.094 737.41 229.214 731.632 230.729C725.854 232.243 719.925 233 713.843 233C705.177 233 697.651 231.789 691.265 229.366C685.031 226.943 680.166 223.081 676.669 217.781C673.324 212.481 671.576 205.44 671.423 196.657V91.7147L710.194 81.0388ZM744.176 117.155V144.64H651.81V117.155H744.176Z" fill="#2ECFCA"/>
<path d="M456.314 170.622C456.314 175.055 452.731 178.636 448.296 178.636C443.861 178.636 440.278 175.055 440.278 170.622V114.522C440.278 110.097 443.861 106.508 448.296 106.508C452.731 106.508 456.314 110.097 456.314 114.522V170.622ZM404.198 170.622C404.198 194.965 423.942 214.7 448.296 214.7C472.65 214.7 492.394 194.965 492.394 170.622C492.394 156.997 486.205 144.801 476.484 136.711C473.076 133.881 472.6 128.83 475.431 125.426C478.263 122.023 483.324 121.559 486.732 124.389C499.961 135.409 508.43 152.039 508.43 170.396C508.43 203.806 481.495 230.729 448.296 230.729C415.097 230.729 388.162 203.806 388.162 170.396C388.162 152.039 396.619 135.409 409.861 124.389C413.268 121.559 418.329 122.023 421.161 125.426C423.767 128.83 423.516 133.881 420.108 136.711C410.387 144.801 404.198 156.997 404.198 170.622Z" fill="#2ECFCA"/>
<path fill-rule="evenodd" clip-rule="evenodd" d="M315.719 227.069C308.272 227.069 301.661 225.397 295.886 222.053C293.237 220.478 290.807 218.633 288.596 216.518C288.159 215.897 287.735 215.261 287.323 214.609C285.641 211.875 284.233 208.979 283.1 205.921L282.908 209.787C282.592 209.325 282.283 208.854 281.98 208.375C280.298 205.641 278.89 202.745 277.757 199.688L276.509 224.789H247.885V68.7095H281.296V130.545C282.765 127.506 284.546 124.705 286.639 122.14V136.778C288.97 131.958 292.085 127.734 295.986 124.106C302.521 117.875 311.336 114.759 322.43 114.759C331.245 114.759 339.072 117.115 345.911 121.826C347.82 123.113 349.61 124.558 351.282 126.162C353.373 129.121 355.197 132.437 356.754 136.11C360.705 144.924 362.681 155.639 362.681 168.253C362.681 180.563 360.705 191.126 356.754 199.941C352.802 208.755 347.331 215.518 340.34 220.23C333.349 224.789 325.142 227.069 315.719 227.069ZM319.629 147.014C320.991 148.053 322.228 149.308 323.342 150.778C327.142 155.641 329.041 163.392 329.041 174.031C329.041 184.669 327.142 192.496 323.342 197.511C319.543 202.375 314.299 204.806 307.612 204.806C303.357 204.806 299.633 203.666 296.442 201.387C294.328 199.776 292.547 197.698 291.1 195.154C291.099 195.154 291.099 195.153 291.099 195.153C287.907 192.722 285.476 189.226 283.804 184.667C282.132 180.107 281.296 174.56 281.296 168.025C281.296 161.49 282.132 155.943 283.804 151.383C285.476 146.824 287.831 143.329 290.871 140.897C294.062 138.313 297.862 137.021 302.269 137.021C308.956 137.021 314.2 139.529 317.999 144.544C318.588 145.298 319.131 146.122 319.629 147.014ZM96.1442 115.268L92.7829 142.949C91.2631 142.341 89.2874 141.885 86.8557 141.581C84.576 141.125 81.7644 140.897 78.4209 140.897C73.8616 140.897 69.6062 141.885 65.6547 143.86C61.7033 145.836 58.5117 148.8 56.0801 152.751C53.8004 156.551 52.6606 161.414 52.6606 167.341V224.789H19.249V117.039H48.5052L49.697 135.426C50.8983 131.885 52.3365 128.673 54.0114 125.789L55.04 141.659C57.9276 133.148 62.183 126.537 67.8062 121.826C73.5814 117.115 80.8763 114.759 89.6911 114.759C92.1812 114.759 94.3322 114.928 96.1442 115.268ZM133.322 220.002C142.593 224.713 153.535 227.069 166.149 227.069C174.052 227.069 181.575 225.929 188.718 223.649C196.013 221.37 202.244 218.026 207.412 213.619C211.622 210.009 214.833 205.781 217.044 200.934L192.921 192.952C191.25 197.055 188.666 200.247 185.17 202.527C181.827 204.806 177.268 205.946 171.492 205.946C166.325 205.946 161.918 204.958 158.27 202.983C155.354 201.281 152.972 198.803 151.124 195.547C148.34 193.439 146.129 190.496 144.492 186.718C143.395 184.101 142.602 181.061 142.114 177.6H219.95C220.254 175.776 220.482 173.496 220.634 170.761C220.786 168.025 220.862 165.289 220.862 162.554C220.862 152.067 218.658 142.797 214.251 134.742C213.314 132.999 212.286 131.338 211.165 129.759C207.999 126.685 204.35 124.04 200.216 121.826C191.857 117.115 181.675 114.759 169.669 114.759C157.966 114.759 147.556 117.115 138.437 121.826C129.47 126.537 122.479 133.3 117.464 142.115C112.449 150.93 109.941 161.568 109.941 174.031C109.941 186.493 112.449 197.131 117.464 205.946C118.436 207.655 119.485 209.286 120.611 210.84C124.278 214.464 128.515 217.518 133.322 220.002ZM142.338 156.855C142.748 154.244 143.314 151.888 144.036 149.788C145.86 144.924 148.444 141.353 151.787 139.073C155.283 136.793 159.462 135.654 164.326 135.654C171.165 135.654 176.18 138.085 179.371 142.949C179.788 143.554 180.178 144.193 180.543 144.864C182.171 145.986 183.562 147.426 184.714 149.182C187.135 152.703 188.679 157.338 189.347 163.088H147.681C148.038 160.817 148.513 158.739 149.105 156.855H142.338ZM625.031 130.77C626.197 132.386 627.281 134.09 628.283 135.882C633.45 144.696 636.034 155.335 636.034 167.797C636.034 180.259 633.45 190.974 628.283 199.941C623.268 208.755 616.201 215.518 607.082 220.23C598.115 224.789 587.629 227.069 575.622 227.069C563.92 227.069 553.509 224.789 544.391 220.23C539.451 217.677 535.09 214.523 531.31 210.766C530.243 209.303 529.241 207.772 528.305 206.174C523.289 197.207 520.782 186.493 520.782 174.031C520.782 161.568 523.289 150.93 528.305 142.115C533.472 133.148 540.615 126.385 549.734 121.826C558.852 117.115 569.263 114.759 580.965 114.759C592.972 114.759 603.458 117.115 612.425 121.826C617.186 124.207 621.388 127.188 625.031 130.77ZM564.224 139.301C567.415 137.173 571.215 136.11 575.622 136.11C580.182 136.11 584.057 137.173 587.249 139.301C589.496 140.8 591.367 142.939 592.861 145.718C595.92 147.857 598.262 151.215 599.887 155.793C601.558 160.504 602.394 166.584 602.394 174.031C602.394 181.478 601.558 187.557 599.887 192.268C598.215 196.827 595.783 200.247 592.592 202.527C589.4 204.654 585.525 205.718 580.965 205.718C576.558 205.718 572.758 204.654 569.567 202.527C567.357 200.948 565.512 198.824 564.031 196.153C560.934 193.875 558.567 190.502 556.929 186.035C555.257 181.323 554.421 175.244 554.421 167.797C554.421 160.35 555.257 154.271 556.929 149.56C558.601 144.848 561.032 141.429 564.224 139.301ZM704.812 82.2689V110.805H710.155V117.039H738.78V138.389H704.812V184.211C704.812 189.682 706.104 193.633 708.688 196.065C709.445 196.696 710.278 197.24 711.186 197.696C711.831 199.587 712.779 201.121 714.031 202.299C716.766 204.578 720.49 205.718 725.201 205.718C728.849 205.718 731.964 205.338 734.548 204.578C735.754 204.176 736.9 203.701 737.988 203.151L740.603 218.406C736.804 221.142 732.016 223.269 726.241 224.789C720.466 226.309 714.539 227.069 708.46 227.069C699.797 227.069 692.274 225.853 685.891 223.421C682.308 222.023 679.177 220.147 676.499 217.794C673.25 212.502 671.551 205.513 671.401 196.827V144.623H666.058V138.389H651.796V117.039H671.401V91.5062L704.812 82.2689ZM443.023 172.508C447.456 172.508 451.038 168.914 451.038 164.465V108.162C451.038 107.687 450.997 107.221 450.918 106.768C450.117 106.499 449.259 106.353 448.366 106.353C443.933 106.353 440.352 109.955 440.352 114.396V170.698C440.352 171.174 440.393 171.64 440.471 172.093C441.273 172.362 442.131 172.508 443.023 172.508ZM412.409 196.292C404.107 188.247 398.944 176.961 398.944 164.465C398.944 150.791 405.13 138.551 414.847 130.432C417.148 128.514 418.009 125.578 417.523 122.822C415.001 122.015 412.133 122.476 409.947 124.299C396.71 135.359 388.258 152.048 388.258 170.472C388.258 184.136 392.729 196.719 400.272 206.832C411.171 217.929 426.302 224.789 443.023 224.789C476.208 224.789 503.132 197.769 503.132 164.239C503.132 150.861 498.669 138.398 491.162 128.341C489.77 126.923 488.31 125.573 486.786 124.299C483.38 121.459 478.321 121.924 475.49 125.34C473.647 127.565 473.206 130.491 474.064 133.046C475.86 134.835 477.503 136.777 478.972 138.852C487.279 146.903 492.446 158.202 492.446 170.698C492.446 195.13 472.71 214.936 448.366 214.936C433.525 214.936 420.397 207.575 412.409 196.292Z" fill="white"/>
</svg>
