<?xml version="1.0" encoding="UTF-8"?>
<svg width="173px" height="30px" viewBox="0 0 173 30" version="1.1" xmlns="http://www.w3.org/2000/svg" xmlns:xlink="http://www.w3.org/1999/xlink">
    <!-- Generator: Sketch 52.5 (67469) - http://www.bohemiancoding.com/sketch -->
    <title>Logo / White@1x</title>
    <desc>Created with Sketch.</desc>
    <defs>
        <polygon id="path-1" points="0 0.308375516 22.3780615 0.308375516 22.3780615 29.9990271 0 29.9990271"></polygon>
    </defs>
    <g id="Symbols" stroke="none" stroke-width="1" fill="none" fill-rule="evenodd">
        <g id="Footer-/-Desktop-/-Top-Tier" transform="translate(-125.000000, -50.000000)">
            <g id="Top">
                <g id="Logo-/-White" transform="translate(125.000000, 50.000000)">
                    <g id="Group">
                        <g id="Group-3">
                            <mask id="mask-2" fill="white">
                                <use xlink:href="#path-1"></use>
                            </mask>
                            <g id="Clip-2"></g>
                            <path d="M22.3778612,8.9228582 C22.4512449,-2.23335232 2.34234054,-2.61140805 2.41572432,8.12573127 C2.46289961,14.953917 6.96726624,16.0399356 12.432611,18.3885176 C16.5403558,20.1521833 15.462313,24.967044 10.8164205,24.9331616 C5.68654447,24.8957127 6.31904281,21.175787 6.31904281,21.175787 L-0.000698893193,21.175787 C1.07734386,33.2004557 20.9626024,32.8241833 20.9626024,20.7210502 C20.9626024,16.3306105 17.5083228,14.0569263 11.7476957,11.8064248 C5.36330636,9.30983034 8.27070205,5.47042477 11.8734965,5.47042477 C13.4739619,5.47042477 16.0581195,5.84669721 16.1315032,8.96030712 L22.3778612,8.9228582 Z" id="Fill-1" fill="#FFFFFF" mask="url(#mask-2)"></path>
                        </g>
                        <path d="M35.6315376,18.4973001 C34.2751436,19.1893062 32.3210165,19.8381742 30.2130352,20.2569727 C26.5718157,20.9849272 28.2695188,27.114124 33.1097411,24.0027927 C35.2530913,22.6277676 35.3680399,20.3720075 35.6315376,18.4973001 Z M24.534572,14.5969021 C25.0597989,4.80995888 43.4462772,4.95554977 41.9148075,14.214052 C41.2003575,18.5368433 40.034955,25.6132796 40.3338215,28.7443825 L34.7667701,28.7443825 L34.7667701,26.7204893 C23.4876551,36.2306301 16.5323777,17.156426 30.4783013,15.9737246 C30.9274852,15.9341814 37.3999783,15.8209441 36.3459876,13.3351144 C35.291997,10.8510822 30.2519409,11.8055113 30.2519409,14.5609538 L24.534572,14.5969021 Z" id="Fill-4" fill="#FFFFFF"></path>
                        <path d="M60.6744604,14.5802564 C60.6744604,5.4565617 43.8229459,5.13255928 43.8229459,14.2989795 C43.8229459,18.7655844 48.9026229,20.1933313 52.2460511,21.0781072 C55.4091357,21.909476 54.2811044,25.3186224 51.648442,25.3186224 C48.5613846,25.3186224 47.9602394,23.7057312 47.9602394,21.9468609 L42.3165468,21.9468609 C42.3165468,32.1725199 59.8452337,32.2508501 59.8452337,22.2512808 C59.8452337,18.1994702 54.5127221,16.4388197 51.9843761,15.8495626 C48.2961735,14.9879297 48.9751139,11.9490718 52.17356,11.9490718 C54.4048696,11.9490718 55.034304,13.3056094 55.034304,14.5802564 L60.6744604,14.5802564 Z" id="Fill-6" fill="#FFFFFF"></path>
                        <polygon id="Fill-8" fill="#FFFFFF" points="65.6044056 0.631578947 60.6744604 29.0526316 66.3041169 29.0526316 71.2535971 0.631578947"></polygon>
                        <polygon id="Fill-10" fill="#FFFFFF" points="83.6684078 29.0526316 74.9478578 18.3826241 84.6330935 8.21052632 78.1402176 8.21052632 68.4532374 18.3826241 77.1755318 29.0526316"></polygon>
                        <polygon id="Fill-12" fill="#FFFFFF" points="84.5373513 29.0526316 90.116268 29.0526316 94.1653398 5.79594252 102.36559 5.79594252 103.302158 0.631578947 79.9126071 0.631578947 79.0323741 5.79594252 88.5441719 5.81568809"></polygon>
                        <path d="M106.816087,22.6114991 C105.939718,25.1837045 99.3880682,27.3731942 99.3880682,20.1425379 L113.388853,20.1425379 C115.78391,3.97413512 93.6564748,2.93635258 93.6564748,19.8007638 C93.6564748,32.4464022 109.8693,32.4837837 112.8662,22.6114991 L106.816087,22.6114991 Z M99.6485152,16.4933883 C100.658627,10.9199798 107.491841,11.0784063 107.882511,16.4933883 L99.6485152,16.4933883 Z" id="Fill-14" fill="#FFFFFF"></path>
                        <polygon id="Fill-16" fill="#FFFFFF" points="119.122391 0.631578947 114.192446 29.0526316 119.823878 29.0526316 124.771583 0.631578947"></polygon>
                        <polygon id="Fill-18" fill="#FFFFFF" points="173 0.631578947 135.350719 0.631578947 135.350719 4.10526316 149.87226 4.10526316 149.87226 2.44170926 173 2.44170926"></polygon>
                        <polygon id="Fill-20" fill="#FFFFFF" points="172.066547 5.68421053 134.417266 5.68421053 134.417266 9.15789474 150.585916 9.15789474 150.585916 7.49603058 172.066547 7.49603058"></polygon>
                        <polygon id="Fill-22" fill="#FFFFFF" points="171.133094 10.7368421 133.483813 10.7368421 133.483813 14.2105263 151.297147 14.2105263 151.297147 12.5451338 171.133094 12.5451338"></polygon>
                        <polygon id="Fill-24" fill="#FFFFFF" points="170.510791 15.4736842 132.861511 15.4736842 132.861511 18.9473684 152.271387 18.9473684 152.271387 17.2855043 170.510791 17.2855043"></polygon>
                        <polygon id="Fill-26" fill="#FFFFFF" points="169.577338 20.5263158 131.928058 20.5263158 131.928058 24 152.987019 24 152.987019 22.3372914 169.577338 22.3372914"></polygon>
                        <polygon id="Fill-28" fill="#FFFFFF" points="168.643885 25.5789474 130.994604 25.5789474 130.994604 29.0526316 153.746184 29.0526316 153.746184 27.3907674 168.643885 27.3907674"></polygon>
                    </g>
                </g>
            </g>
        </g>
    </g>
</svg>