<svg xmlns="http://www.w3.org/2000/svg" id="Layer_2" data-name="Layer 2" viewBox="0 0 300 47.07"><defs><style>.cls-1{fill:#222}.cls-2{fill:#41c0c0}</style></defs><g id="Layer_1-2" data-name="Layer 1"><g><polygon points="55.4 29.11 51.01 17.07 55.38 17.07 57.43 23.92 57.9 25.71 58.11 25.71 58.38 24.52 60.49 17.07 65.21 17.07 67.44 24.52 67.81 25.71 68.02 25.71 68.49 23.92 70.35 17.07 74.66 17.07 74.45 18.3 70.23 29.11 65.51 29.11 63.34 22.49 62.93 20.77 62.72 20.77 62.33 22.49 60.18 29.11 55.4 29.11" class="cls-1"/><path d="M79.83,29.11c-1.45,0-2.51-.33-3.17-.97-.66-.65-.99-1.69-.99-3.11v-3.92c0-1.39.33-2.42.98-3.08.66-.66,1.72-.98,3.18-.98h5.99c1.44,0,2.48.33,3.15.98.66.66,1,1.68,1,3.08v3.92c0,1.42-.34,2.46-1.01,3.11-.67.65-1.72.97-3.14.97h-5.99ZM81.24,26.32h3.18c1.07,0,1.6-.48,1.6-1.46v-3.59c0-.96-.53-1.44-1.6-1.44h-3.18c-.55,0-.96.11-1.23.33-.27.22-.41.59-.41,1.11v3.59c0,.51.14.87.41,1.11.27.23.68.35,1.23.35" class="cls-1"/><path d="M92.61,29.11l.2-1.64v-10.42h3.94v9.25h7.26l1.23,2.58c0,.05-.19.11-.55.15-.37.05-1.01.07-1.91.07h-10.17Z" class="cls-1"/><path d="M106.65,29.11v-10.42l-.2-1.64h9.52c1.65,0,2.89.33,3.72.98.83.66,1.24,1.68,1.24,3.08v3.92c0,1.42-.41,2.46-1.23,3.11-.82.65-2.06.97-3.73.97h-9.31ZM110.65,26.28h4.7c1.05,0,1.59-.49,1.6-1.46v-3.55c0-.4-.12-.74-.35-1.02-.23-.28-.65-.42-1.25-.42h-4.7v6.44Z" class="cls-1"/><path d="M127.22,29.32c-1.37,0-2.4-.32-3.11-.96-.7-.64-1.06-1.68-1.06-3.12v-8.18h4v7.81c0,.64.16,1.07.47,1.29.32.22.71.33,1.17.33h2.65c.44,0,.82-.11,1.15-.34.33-.23.49-.65.49-1.28v-7.81h3.94v8.18c0,1.44-.34,2.48-1.03,3.12-.69.64-1.73.96-3.11.96h-5.56Z" class="cls-1"/><path d="M145.86,29.11c-.93,0-1.61-.04-2.05-.12-.44-.08-.66-.18-.66-.29l1.23-2.65c.31.06.96.11,1.95.15.98.05,2.26.07,3.83.07h1.62c.48,0,.8-.07.96-.21.16-.14.25-.33.25-.59v-.21c0-.33-.08-.55-.25-.68-.16-.12-.49-.18-.96-.18h-4.7c-1.38,0-2.39-.26-3.02-.77-.63-.51-.94-1.35-.94-2.51v-.74c0-.6.11-1.15.34-1.66.23-.51.61-.91,1.16-1.22.55-.31,1.3-.46,2.26-.46h6.81c.83,0,1.53.05,2.08.14.55.1.83.2.83.31l-.62,2.54c-.38-.04-1.1-.09-2.16-.13-1.06-.05-2.4-.07-4.03-.07l-1.48-.02c-.42,0-.72.06-.9.17-.18.12-.27.33-.29.65v.14c0,.31.1.53.29.66.19.12.5.18.92.18h4.51c.88,0,1.62.09,2.24.27.62.18,1.09.5,1.41.97.33.47.49,1.17.49,2.08v.74c0,1.03-.26,1.85-.79,2.48-.53.63-1.44.94-2.74.94h-7.61Z" class="cls-1"/><path d="M159.44,29.11v-12.06h13.17v2.79h-9.17v1.7h6.79v2.85h-6.79v1.91h8.84l1.23,2.58c0,.05-.18.11-.55.15-.37.05-1,.07-1.91.07h-11.61Z" class="cls-1"/><path d="M175.13,29.11l.2-1.64v-10.42h3.94v9.25h7.26l1.23,2.58c0,.05-.19.11-.55.15-.37.05-1.01.07-1.91.07h-10.17Z" class="cls-1"/><path d="M188.97,29.11v-12.06h13.16v2.79h-9.17v1.7h6.79v2.85h-6.79v1.91h8.84l1.23,2.58c0,.05-.18.11-.55.15-.37.05-1.01.07-1.91.07h-11.61Z" class="cls-1"/><path d="M208.62,29.11c-1.46,0-2.52-.32-3.18-.96-.66-.64-.98-1.68-.98-3.12v-3.75c0-1.48.36-2.55,1.09-3.23.72-.68,1.75-1.02,3.08-1.02h5.99c.94,0,1.66.05,2.16.15.5.1.75.21.75.32l-.64,2.56c-.34-.04-1.01-.09-2-.13-.99-.05-2.24-.07-3.74-.07h-1.05c-.64,0-1.08.12-1.3.36-.22.24-.34.61-.34,1.1v3.51c0,.46.1.82.3,1.08.2.25.65.38,1.34.38h.84c1.96,0,3.45-.02,4.47-.07,1.03-.05,1.64-.1,1.85-.15l1.25,2.22c0,.07-.14.17-.42.31-.28.14-.75.26-1.41.37-.66.11-1.58.16-2.76.16h-5.29Z" class="cls-1"/><polygon points="223.77 29.11 223.77 19.82 218.89 19.82 218.89 17.03 232.69 17.03 232.69 19.82 227.75 19.82 227.75 29.11 223.77 29.11" class="cls-1"/><path d="M236.92,29.11l6.01-12.06h5.33l5.99,12.06h-4.41l-1-2.2h-6.48l-1.13,2.2h-4.31ZM243.48,24.09h4.2l-1.99-4.37h-.2l-2.01,4.37Z" class="cls-1"/><path d="M259.48,29.32c-1.37,0-2.4-.32-3.11-.96-.7-.64-1.06-1.68-1.06-3.12v-8.18h4v7.81c0,.64.16,1.07.47,1.29.32.22.71.33,1.17.33h2.65c.44,0,.82-.11,1.15-.34.33-.23.49-.65.49-1.28v-7.81h3.94v8.18c0,1.44-.34,2.48-1.03,3.12-.69.64-1.73.96-3.11.96h-5.56Z" class="cls-1"/><polygon points="275.37 29.11 275.37 19.82 270.49 19.82 270.49 17.03 284.29 17.03 284.29 19.82 279.35 19.82 279.35 29.11 275.37 29.11" class="cls-1"/><path d="M289.87,29.11c-1.45,0-2.51-.33-3.17-.97-.66-.65-.99-1.69-.99-3.11v-3.92c0-1.39.33-2.42.98-3.08.66-.66,1.72-.98,3.18-.98h5.99c1.44,0,2.48.33,3.15.98.66.66,1,1.68,1,3.08v3.92c0,1.42-.34,2.46-1.01,3.11-.67.65-1.72.97-3.14.97h-5.99ZM291.28,26.32h3.18c1.07,0,1.6-.48,1.6-1.46v-3.59c0-.96-.53-1.44-1.6-1.44h-3.18c-.55,0-.96.11-1.23.33-.27.22-.41.59-.41,1.11v3.59c0,.51.14.87.41,1.11.27.23.68.35,1.23.35" class="cls-1"/><polygon points="15.96 0 5.4 18.13 14.47 33.77 17.17 29.13 10.79 18.13 18.89 4.2 30.49 24.21 33.19 19.57 21.85 0 15.96 0" class="cls-1"/><polygon points="17.24 46.97 27.79 28.85 18.72 13.21 16.02 17.85 22.4 28.85 14.3 42.77 2.7 22.77 0 27.41 11.35 46.97 17.24 46.97" class="cls-2"/><polygon points="36.66 22.8 25.08 42.77 23.53 40.1 20.83 44.74 22.13 46.97 28.04 46.97 39.36 27.45 36.66 22.8" class="cls-2"/><path d="M98.29,46.97v-4.76l-.09-.75h4.34c.51,0,.89.06,1.17.19.27.13.46.31.57.56.11.25.16.55.16.92v2.16c0,.37-.05.68-.15.93-.1.25-.29.43-.56.56-.27.13-.66.19-1.17.19h-4.25ZM99.53,46.08h2.94c.48,0,.72-.22.73-.66v-2.39c0-.18-.05-.33-.16-.46-.11-.13-.3-.19-.57-.19h-2.94v3.71Z" class="cls-2"/><path d="M116.32,47.07c-.25,0-.5-.04-.74-.12-.24-.08-.51-.27-.82-.58l-.67-.67c-.28-.28-.58-.49-.9-.62-.33-.13-.74-.2-1.23-.2h-.29v2.09h-1.24v-4.76l-.09-.76h4.15c.4,0,.71.05.94.16.23.11.4.25.51.42.11.17.18.35.21.55.03.19.05.38.05.55v.18c0,.14-.02.29-.06.46-.04.17-.11.33-.22.5-.11.16-.26.3-.45.41-.2.11-.45.18-.77.2.08.04.18.11.31.2.12.09.25.19.39.29.13.11.26.2.37.29.11.09.2.15.26.19.23.13.42.22.6.27.17.05.32.08.43.08.11,0,.18,0,.2,0l-.19.76c-.06.02-.15.04-.28.06-.13.02-.28.03-.46.03M113.07,44.03c.24,0,.45,0,.64-.01.19,0,.35-.02.51-.03.27-.03.47-.11.58-.23.11-.12.16-.28.16-.47v-.22c0-.2-.05-.37-.16-.51-.11-.14-.3-.21-.57-.21h-2.56v1.63c.27.02.53.03.76.04.23,0,.45,0,.65,0" class="cls-2"/><rect width="1.24" height="5.51" x="122.67" y="41.47" class="cls-2"/><polygon points="131.95 46.97 129.34 41.48 130.65 41.48 132.41 45.27 132.66 45.94 132.75 45.94 132.99 45.27 134.77 41.48 136.04 41.48 135.9 42.04 133.45 46.97 131.95 46.97" class="cls-2"/><path d="M141.48,46.97v-5.51h5.82v.9h-4.59v1.29h3.5v.93h-3.5v1.49h4.63l.37.8s-.08.05-.25.07c-.17.02-.46.03-.87.03h-5.11Z" class="cls-2"/><polygon points="153.33 46.97 153.33 42.22 153.24 41.47 154.58 41.47 157.77 44.8 158.13 45.31 158.24 45.31 158.24 41.47 159.47 41.47 159.47 46.97 158.28 46.97 155.03 43.59 154.66 43.14 154.57 43.14 154.57 46.97 153.33 46.97" class="cls-2"/><path d="M172.21,46.97v-5.51h4.07c.59,0,1.01.12,1.28.35.27.23.4.52.4.85v.28c0,.26-.05.47-.16.63-.11.17-.23.28-.35.35.27.09.49.24.66.45.16.22.24.5.24.85v.17c0,.19-.02.37-.07.56-.04.19-.13.36-.25.51-.12.15-.29.28-.52.37-.22.09-.51.14-.87.14h-4.45ZM173.45,43.67h2.64c.22,0,.38-.05.49-.16.11-.11.16-.26.16-.44v-.09c0-.14-.05-.28-.15-.42-.1-.13-.29-.2-.56-.2h-2.57v1.31ZM173.45,46.08h2.95c.24,0,.42-.06.54-.18.12-.12.18-.28.18-.49v-.17c0-.19-.07-.35-.21-.47-.14-.12-.38-.18-.71-.18h-2.74v1.49Z" class="cls-2"/><polygon points="186.32 46.97 186.32 44.69 183.59 41.47 185.09 41.47 186.48 43.22 186.91 43.8 187 43.8 187.43 43.22 188.82 41.47 190.32 41.47 189.95 42.03 187.56 44.73 187.56 46.97 186.32 46.97" class="cls-2"/><polygon points="204.28 46.97 204.27 42.36 201.84 42.36 201.84 41.46 207.96 41.46 207.96 42.36 205.52 42.36 205.52 46.97 204.28 46.97" class="cls-2"/><path d="M219.47,47.07c-.25,0-.5-.04-.74-.12-.24-.08-.51-.27-.82-.58l-.67-.67c-.27-.28-.58-.49-.9-.62-.33-.13-.74-.2-1.23-.2h-.29v2.09h-1.24v-4.76l-.09-.76h4.15c.4,0,.71.05.94.16.23.11.4.25.51.42.11.17.18.35.21.55.03.19.05.38.05.55v.18c0,.14-.02.29-.06.46-.04.17-.11.33-.22.5-.11.16-.26.3-.46.41-.2.11-.45.18-.77.2.08.04.18.11.31.2.12.09.25.19.39.29.13.11.26.2.37.29.11.09.2.15.26.19.23.13.42.22.6.27.17.05.32.08.43.08.11,0,.18,0,.2,0l-.19.76c-.06.02-.15.04-.28.06-.13.02-.28.03-.46.03M216.22,44.03c.24,0,.45,0,.64-.01.19,0,.35-.02.51-.03.27-.03.47-.11.57-.23.11-.12.16-.28.16-.47v-.22c0-.2-.05-.37-.16-.51-.11-.14-.3-.21-.57-.21h-2.56v1.63c.27.02.53.03.76.04.23,0,.45,0,.65,0" class="cls-2"/><path d="M227.21,47.07c-.57,0-.96-.15-1.19-.46-.22-.31-.34-.71-.34-1.22v-3.92h1.24v3.96c0,.29.07.49.22.59.14.1.32.15.53.15h1.98c.2,0,.37-.05.52-.15.15-.1.23-.3.23-.59v-3.96h1.24v3.92c0,.34-.05.63-.14.88-.09.25-.25.44-.47.59-.22.14-.52.21-.91.21h-2.91Z" class="cls-2"/><path d="M238.64,46.97c-.42,0-.74-.02-.94-.06-.2-.04-.3-.08-.3-.13l.38-.81c.14.02.5.05,1.07.07.57.02,1.36.03,2.36.03h.18c.27,0,.46-.05.57-.15.11-.1.17-.26.17-.49v-.19c0-.22-.04-.37-.14-.47-.09-.09-.29-.14-.6-.14h-2.17c-.63,0-1.09-.12-1.38-.35-.29-.23-.43-.62-.43-1.15v-.15c0-.27.05-.53.15-.76.1-.23.28-.42.53-.56.25-.14.59-.21,1.03-.21h2.55c.42,0,.77.02,1.03.07.26.04.39.09.39.14l-.19.79c-.16-.02-.53-.04-1.11-.06-.57-.02-1.35-.03-2.31-.03h-.1c-.29,0-.48.05-.58.16-.1.12-.15.26-.16.44v.16c0,.21.06.36.17.46.11.1.31.15.58.15h2.08c.4,0,.74.04,1.02.12.28.08.5.23.65.45.15.21.22.53.22.95v.15c0,.47-.12.85-.36,1.13s-.66.43-1.25.43h-3.11Z" class="cls-2"/><polygon points="251.14 46.97 251.13 42.36 248.69 42.36 248.69 41.46 254.82 41.46 254.82 42.36 252.37 42.36 252.37 46.97 251.14 46.97" class="cls-2"/></g></g></svg>